<svg width="180" height="120" viewBox="0 0 180 120" fill="none" xmlns="http://www.w3.org/2000/svg">
  <g>
    <path d="M20 100 Q22 90 30 90 Q38 90 40 100 Q42 110 50 110 Q58 110 60 100" stroke="#7c6bb0" stroke-width="2" fill="none"/>
    <ellipse cx="30" cy="90" rx="4" ry="7" fill="#7c6bb0"/>
    <ellipse cx="60" cy="100" rx="4" ry="7" fill="#7c6bb0"/>
    <path d="M90 80 L90 40 Q90 30 100 30 Q110 30 110 40 L110 80" stroke="#432c7a" stroke-width="2" fill="none"/>
    <ellipse cx="90" cy="80" rx="5" ry="8" fill="#432c7a"/>
    <ellipse cx="110" cy="80" rx="5" ry="8" fill="#432c7a"/>
    <path d="M150 60 Q152 50 160 50 Q168 50 170 60 Q172 70 180 70" stroke="#7c6bb0" stroke-width="2" fill="none"/>
    <ellipse cx="160" cy="50" rx="4" ry="7" fill="#7c6bb0"/>
  </g>
</svg> 