<!--?xml version="1.0" encoding="utf-8"?-->
<!-- Generator: Adobe Illustrator 22.1.0, SVG Export Plug-In . SVG Version: 6.00 Build 0)  -->
<svg version="1.1" id="_x31__1_" xmlns="http://www.w3.org/2000/svg" xmlns:xlink="http://www.w3.org/1999/xlink" x="0px" y="0px" viewBox="0 0 789.626 800" style="enable-background:new 0 0 789.626 800;" xml:space="preserve">
<style type="text/css">
	.st0{fill:#040000;}
</style>
<g>
	<path class="st0" d="M207.143,69.074v132.627v386.227c-25.773-9.466-56.255-12.294-87.633-6.215
		C44.088,596.192-7.815,655.714,3.53,714.542c11.328,58.845,81.638,94.761,157.011,80.232
		c66.906-12.903,115.235-61.217,117.317-113.153h0.441V308.298l438.214-48.074v263.981c-25.807-9.466-56.22-12.244-87.617-6.182
		c-75.405,14.497-127.292,73.984-116.031,132.813c11.346,58.846,81.64,94.763,157.029,80.233
		c66.923-12.87,115.269-61.234,117.317-113.119h0.441V138.029V2L207.143,69.074z M716.513,207.458l-438.231,48.074v-58.488
		l438.231-54.373V207.458z"></path>
</g>
</svg>
