<svg xmlns="http://www.w3.org/2000/svg" x="0px" y="0px" width="100" height="100" viewBox="0 0 24 24">
<path d="M 11 3 L 11 14.511719 C 10.424489 14.198271 9.7526804 14 9 14 C 7.7500003 14 6.6852256 14.504756 6.0019531 15.273438 C 5.3186806 16.042119 5 17.027778 5 18 C 5 18.972222 5.3186806 19.957881 6.0019531 20.726562 C 6.6852256 21.495244 7.7500003 22 9 22 C 10.25 22 11.314774 21.495244 11.998047 20.726562 C 12.681319 19.957881 13 18.972222 13 18 L 13 9 L 19 9 L 19 3 L 11 3 z M 13 5 L 17 5 L 17 7 L 13 7 L 13 5 z M 9 16 C 9.7499995 16 10.185226 16.245244 10.501953 16.601562 C 10.81868 16.957881 11 17.472222 11 18 C 11 18.527778 10.81868 19.042119 10.501953 19.398438 C 10.185226 19.754756 9.7499995 20 9 20 C 8.2500005 20 7.8147739 19.754756 7.4980469 19.398438 C 7.1813198 19.042119 7 18.527778 7 18 C 7 17.472222 7.1813198 16.957881 7.4980469 16.601562 C 7.8147739 16.245244 8.2500005 16 9 16 z"></path>
</svg>