<svg xmlns="http://www.w3.org/2000/svg" x="0px" y="0px" width="100" height="100" viewBox="0 0 24 24">
<path d="M 21 0 L 8 4.625 C 7.449219 4.808594 7 5.417969 7 5.96875 L 7 17.78125 C 6.546875 17.707031 6.035156 17.714844 5.5 17.84375 C 3.566406 18.316406 2 20.0625 2 21.71875 C 2 23.375 3.566406 24.316406 5.5 23.84375 C 7.410156 23.378906 8.960938 21.699219 9 20.0625 C 9 20.042969 9 20.019531 9 20 L 9 8.28125 L 20 4.34375 L 20 14.78125 C 19.546875 14.707031 19.035156 14.714844 18.5 14.84375 C 16.566406 15.316406 15 17.0625 15 18.71875 C 15 20.375 16.566406 21.316406 18.5 20.84375 C 20.433594 20.371094 22 18.65625 22 17 L 22 1 C 22 0.449219 21.550781 0 21 0 Z"></path>
</svg>